<svg width="139" height="24" viewBox="0 0 139 24" fill="none" xmlns="http://www.w3.org/2000/svg">
<path d="M11.7502 23.6123H6.17437L0 7.92468H5.70184L9.00955 18.0994H9.10369L12.4117 7.92468H17.9246L11.7502 23.6123Z" fill="#1D8CB9"/>
<path d="M45.1247 12.0613C44.8937 11.9983 44.6681 11.9566 44.4476 11.9349C44.2267 11.9146 44.0113 11.9038 43.802 11.9038C43.1089 11.9038 42.526 12.0301 42.0535 12.2807C41.5809 12.5324 41.2029 12.8362 40.9197 13.1917C40.6359 13.5484 40.4313 13.9355 40.3049 14.3544C40.1793 14.773 40.1163 15.1398 40.1163 15.4533V23.4961H34.9496V7.82699H39.9269V10.0955H39.9903C40.3889 9.29237 40.9556 8.63662 41.6914 8.12933C42.426 7.62132 43.2766 7.36749 44.2427 7.36749C44.4527 7.36749 44.6572 7.37836 44.8571 7.39936C45.0559 7.42036 45.2192 7.4515 45.3449 7.4935L45.1247 12.0613Z" fill="#1D8CB9"/>
<path d="M74.3199 13.8564C74.3199 13.0373 74.0621 12.3341 73.5475 11.7461C73.033 11.1588 72.261 10.864 71.2323 10.864C70.7287 10.864 70.2666 10.943 69.8462 11.1005C69.4262 11.2576 69.0591 11.4731 68.7437 11.7461C68.4287 12.0191 68.1766 12.3396 67.988 12.7067C67.799 13.075 67.6933 13.4577 67.6726 13.8564H74.3199ZM79.0767 15.841V16.471C79.0767 16.6818 79.0654 16.8805 79.0448 17.0699H67.6726C67.715 17.5109 67.8461 17.91 68.0662 18.267C68.2871 18.6244 68.5706 18.934 68.9171 19.1961C69.2636 19.4586 69.6518 19.6639 70.0827 19.8106C70.5129 19.9579 70.9593 20.0311 71.4213 20.0311C72.2408 20.0311 72.9334 19.879 73.5005 19.5741C74.0675 19.27 74.5292 18.876 74.8866 18.393L78.4778 20.6611C77.7424 21.7322 76.7712 22.5563 75.5637 23.1335C74.3557 23.7114 72.9541 24 71.3587 24C70.1823 24 69.0696 23.816 68.0191 23.4485C66.9687 23.0821 66.0505 22.5462 65.2629 21.8419C64.475 21.1387 63.8555 20.273 63.4043 19.2435C62.9524 18.2148 62.7272 17.038 62.7272 15.7153C62.7272 14.4343 62.9477 13.2738 63.3884 12.2342C63.8294 11.1946 64.4279 10.3129 65.184 9.58839C65.94 8.86385 66.8326 8.30224 67.8616 7.90286C68.8907 7.50456 70.0041 7.30432 71.2012 7.30432C72.3555 7.30432 73.4165 7.49913 74.3825 7.88729C75.3486 8.27581 76.1781 8.83778 76.8715 9.57282C77.5642 10.3079 78.1048 11.2001 78.4933 12.2498C78.8815 13.3002 79.0767 14.4973 79.0767 15.841Z" fill="#1D8CB9"/>
<path d="M90.435 23.4961V14.9279C90.435 14.4866 90.398 14.0669 90.3245 13.6679C90.251 13.2692 90.1305 12.9173 89.9625 12.6127C89.7941 12.3086 89.5584 12.0667 89.2538 11.8882C88.949 11.7097 88.5659 11.6199 88.1038 11.6199C87.6418 11.6199 87.2377 11.7097 86.8912 11.8882C86.545 12.0667 86.2561 12.3133 86.0251 12.6283C85.7933 12.9433 85.6203 13.3058 85.5051 13.7153C85.3892 14.1248 85.3317 14.5499 85.3317 14.9913V23.4961H80.1339V7.80888H85.1427V9.98215H85.2057C85.395 9.64685 85.6413 9.31554 85.9461 8.99002C86.2503 8.66414 86.6073 8.38642 87.0172 8.15504C87.4267 7.92403 87.8728 7.73538 88.3562 7.58801C88.8389 7.44136 89.353 7.36749 89.8994 7.36749C90.9495 7.36749 91.8417 7.55687 92.5775 7.93453C93.3118 8.31255 93.9053 8.80065 94.3571 9.39955C94.8087 9.99772 95.1335 10.6864 95.3337 11.4624C95.5329 12.2398 95.6328 13.0172 95.6328 13.7939V23.4961H90.435Z" fill="#1D8CB9"/>
<path d="M117.679 12.4395C117.258 12.0408 116.765 11.7041 116.198 11.4311C115.631 11.1588 115.032 11.0215 114.402 11.0215C113.919 11.0215 113.473 11.1161 113.064 11.3054C112.654 11.4941 112.45 11.82 112.45 12.282C112.45 12.7223 112.675 13.0373 113.127 13.227C113.578 13.4157 114.308 13.6257 115.316 13.8564C115.904 13.9827 116.497 14.1612 117.096 14.3922C117.694 14.6236 118.235 14.9278 118.718 15.3062C119.201 15.6835 119.589 16.1459 119.884 16.6919C120.177 17.2386 120.325 17.889 120.325 18.6446C120.325 19.6317 120.125 20.467 119.726 21.1496C119.327 21.8318 118.807 22.3832 118.167 22.8029C117.526 23.2229 116.807 23.5274 116.009 23.7168C115.211 23.9055 114.412 24 113.615 24C112.334 24 111.079 23.7954 109.85 23.3862C108.622 22.976 107.598 22.3731 106.779 21.5747L109.677 18.519C110.139 19.023 110.706 19.4431 111.379 19.7794C112.05 20.1155 112.764 20.2831 113.52 20.2831C113.94 20.2831 114.355 20.1832 114.764 19.9837C115.174 19.7841 115.379 19.4322 115.379 18.9285C115.379 18.4459 115.127 18.0885 114.623 17.8571C114.119 17.6261 113.331 17.3849 112.26 17.1326C111.714 17.0069 111.168 16.8393 110.622 16.6285C110.076 16.4189 109.587 16.1357 109.157 15.778C108.727 15.4213 108.375 14.9803 108.102 14.4553C107.829 13.9302 107.693 13.3002 107.693 12.5648C107.693 11.6197 107.892 10.8166 108.291 10.1554C108.69 9.49388 109.205 8.95328 109.835 8.53326C110.465 8.11359 111.163 7.80364 111.93 7.60341C112.696 7.40462 113.458 7.30432 114.214 7.30432C115.389 7.30432 116.539 7.48863 117.663 7.85542C118.786 8.22367 119.737 8.77477 120.514 9.50945L117.679 12.4395Z" fill="#1D8CB9"/>
<path d="M133.249 13.8564C133.249 13.0373 132.991 12.3341 132.477 11.7461C131.962 11.1588 131.19 10.864 130.162 10.864C129.658 10.864 129.196 10.943 128.776 11.1005C128.355 11.2576 127.988 11.4731 127.673 11.7461C127.358 12.0191 127.106 12.3396 126.917 12.7067C126.728 13.075 126.623 13.4577 126.602 13.8564H133.249ZM138.006 15.841V16.471C138.006 16.6818 137.994 16.8805 137.974 17.0699H126.602C126.644 17.5109 126.775 17.91 126.996 18.267C127.216 18.6244 127.5 18.934 127.846 19.1961C128.193 19.4586 128.581 19.6639 129.012 19.8106C129.442 19.9579 129.889 20.0311 130.351 20.0311C131.17 20.0311 131.863 19.879 132.429 19.5741C132.997 19.27 133.458 18.876 133.815 18.393L137.407 20.6611C136.672 21.7322 135.7 22.5563 134.493 23.1335C133.285 23.7114 131.883 24 130.288 24C129.111 24 127.999 23.816 126.948 23.4485C125.898 23.0821 124.98 22.5462 124.192 21.8419C123.404 21.1387 122.785 20.273 122.334 19.2435C121.882 18.2148 121.656 17.038 121.656 15.7153C121.656 14.4343 121.877 13.2738 122.317 12.2342C122.759 11.1946 123.357 10.3129 124.113 9.58839C124.869 8.86385 125.762 8.30224 126.791 7.90286C127.82 7.50456 128.933 7.30432 130.13 7.30432C131.285 7.30432 132.345 7.49913 133.312 7.88729C134.278 8.27581 135.107 8.83778 135.8 9.57282C136.494 10.3079 137.034 11.2001 137.422 12.2498C137.811 13.3002 138.006 14.4973 138.006 15.841Z" fill="#1D8CB9"/>
<path d="M103.444 16.4192C102.746 16.4192 102.118 16.7212 101.684 17.2013C101.25 16.7212 100.622 16.4192 99.9243 16.4192C98.6146 16.4192 97.5526 17.4808 97.5526 18.7909C97.5526 21.6438 101.684 23.9999 101.684 23.9999C101.684 23.9999 105.815 21.6438 105.816 18.7909C105.816 17.4808 104.754 16.4192 103.444 16.4192Z" fill="#1D8CB9"/>
<path d="M24.9495 5.01097C24.0638 5.01097 23.3458 4.29295 23.3458 3.40691C23.3458 2.52124 24.0638 1.80321 24.9495 1.80321C25.8351 1.80321 26.5535 2.52124 26.5535 3.40691C26.5535 4.29295 25.8351 5.01097 24.9495 5.01097ZM24.9495 0C23.0677 0 21.5425 1.52549 21.5425 3.40691C21.5425 5.28906 23.0677 6.81418 24.9495 6.81418C26.8312 6.81418 28.3567 5.28906 28.3567 3.40691C28.3567 1.52549 26.8312 0 24.9495 0Z" fill="#1D8CB9"/>
<path d="M24.7612 19.7235C22.5126 19.7235 20.6898 17.9007 20.6898 15.6521C20.6898 13.4035 22.5126 11.5808 24.7612 11.5808C27.0101 11.5808 28.8329 13.4035 28.8329 15.6521C28.8329 17.9007 27.0101 19.7235 24.7612 19.7235ZM28.6446 7.56952V8.67064C27.4486 7.9718 26.0582 7.56952 24.5729 7.56952C20.109 7.56952 16.4903 11.1883 16.4903 15.6521C16.4903 20.116 20.109 23.7347 24.5729 23.7347C26.0582 23.7347 27.4486 23.3324 28.6446 22.6332V23.5026H33.409V7.56952H28.6446Z" fill="#1D8CB9"/>
<path d="M53.1 19.7238C50.851 19.7238 49.0283 17.901 49.0283 15.6525C49.0283 13.4039 50.851 11.5811 53.1 11.5811C55.3486 11.5811 57.1713 13.4039 57.1713 15.6525C57.1713 17.901 55.3486 19.7238 53.1 19.7238ZM56.9834 0V8.67099C55.7871 7.97216 54.3966 7.56987 52.9117 7.56987C48.4478 7.56987 44.8291 11.1886 44.8291 15.6525C44.8291 20.1163 48.4478 23.7351 52.9117 23.7351C54.3966 23.7351 55.7871 23.3328 56.9834 22.6336V23.503H61.7474V0H56.9834Z" fill="#1D8CB9"/>
</svg>
