<svg version="1" xmlns="http://www.w3.org/2000/svg" width="1706.667" height="1706.667" viewBox="0 0 1280.000000 1280.000000"><path d="M879.5 131.9c-5.7 2.7-147.9 145.2-150 150.3-2.7 6.7-1.9 10.3 8 37.4 5.2 14.2 9.5 26.3 9.5 26.9 0 .9-269.7 152.6-272.5 153.3-.7.2-4.6-6.9-9.4-17.5-11-23.7-12.2-25.7-17.9-29l-4.7-2.8-100.5-.3c-72-.2-102 .1-105.9.9-4.2.9-6.4 2.1-9.7 5.3-3.8 3.7-7.7 11.8-40 84.6-29.8 67.1-35.8 81.4-36.1 86-.4 5.4.2 6.9 35.8 87 19.9 44.8 37.1 82.7 38.1 84.1 1.1 1.5 3.9 3.7 6.1 5l4.2 2.4h208l4.7-2.8c5.5-3.2 7.2-5.8 15.8-24.7 3.4-7.4 6.6-13.9 7-14.4.5-.5 60.4 36 133.2 80.9 72.8 45 133.1 82.3 134 83 1.5 1 .9 2.8-6.7 19.3-9.2 19.7-10.5 23.9-9.4 29.2.4 1.9 17.7 39.9 38.3 84.5 40.6 87.5 39.8 86.1 48.7 88.5 2.4.7 40 .9 106.6.8l102.9-.3 4.3-2.8c2.3-1.5 5.1-4.2 6.1-6 1.1-1.8 18.1-39.4 37.7-83.6 30.8-69.5 35.7-81.1 35.6-85-.1-3.7-7-20-36.3-86.1-22.4-50.4-37.2-82.6-38.8-84.3-5.9-6.3-8-6.7-31.7-6.7H973V663.5c0-118.1.2-131.5 1.5-131.5.9 0 3-.7 4.8-1.6 4.4-2.2 146.4-144 148.8-148.6 4.2-8.1 4.6-7-29.7-96.1-17.4-45.2-32.5-83.7-33.7-85.6-1.4-2.3-3.9-4.2-8.1-6.2-3.4-1.5-41.4-16.4-84.6-33-55.5-21.4-80-30.3-83.5-30.6-3.5-.3-6.2.2-9 1.6zm153 96.3c.8 1 41.2 107.4 40.9 107.7-.3.3-106.3-40.6-107.2-41.5-.4-.3-40.7-103.3-41.7-106.5-.4-1.2 15.3 4.4 53.6 19.2 29.8 11.4 54.2 20.9 54.4 21.1zm-129.1 18.9l23 59-54.9 54.9c-30.2 30.2-55 54.8-55.2 54.7-.1-.2-10.1-27.3-22.2-60.3l-22-59.9 53.7-53.8c29.5-29.5 53.9-53.7 54.2-53.7.3 0 10.8 26.6 23.4 59.1zM1018.3 359l54.8 21.4-53.9 53.9-54 54-40.3-14.8c-22.2-8.1-49.2-17.9-59.9-21.8-10.7-3.9-19.7-7.2-20-7.4-.2-.2 24.3-25.1 54.5-55.3l54.9-54.9 4.5 1.8c2.5.9 29.3 11.3 59.4 23.1zm-233.8 89c4.6 12.9 6.6 16.8 9.9 19.9 1.6 1.5 16.8 7.6 43.3 17.3 22.4 8.2 40.9 15.1 41.2 15.3.2.3.6 66.6.9 147.5l.5 147h-35.4c-32.3 0-35.8.2-39.4 1.9-2.2 1-5 2.9-6.3 4.3-1.2 1.3-6.3 11.2-11.3 21.9-5 10.7-9.2 19.5-9.4 19.7-.2.2-265.2-163.1-268.3-165.4-.2-.1 3.9-9.5 9.2-20.8 5.2-11.4 10.1-22.4 10.7-24.6 1.6-5.2.9-7.4-9.2-29.1-4.4-9.6-7.6-17.5-7.2-17.7.4-.1 60.4-33.7 133.3-74.6 72.9-40.9 132.8-74.1 133.1-73.7.3.3 2.3 5.3 4.4 11.1zM451.1 549.4c14.8 31.9 26.9 58.1 26.9 58.3 0 .2-35 .3-77.7.3l-77.8-.1-25.3-57.7c-13.8-31.7-25.2-58-25.2-58.5 0-.4 34.2-.6 76.1-.5l76.1.3 26.9 57.9zm-187.7 25.7c12.4 28.4 22.6 52.2 22.6 53 0 1.1-42 98-45.2 104.3-.8 1.5-5.6-8.4-24.5-51-21.9-49.3-23.5-53.1-22.4-55.9 3.7-10 45.7-103.2 46.2-102.7.4.4 10.9 23.9 23.3 52.3zM478 648.4c0 .2-12.1 26.4-26.9 58.2l-26.8 57.9-76.2.3c-64.2.2-76.2 0-75.9-1.2.2-.7 11.6-27 25.3-58.4l25-57.1 77.8-.1c42.7 0 77.7.2 77.7.4zm501 188.3c0 .4-11.3 26.5-25.2 58L928.7 952h-77.9c-42.9 0-77.7-.3-77.5-.8.4-.6 31.3-66.9 49.8-107l3.8-8.2H903c41.8 0 76 .3 76 .7zm78.2 133c1.1 3 0 5.8-22.2 55.8-12.8 28.9-23.7 52.2-24.1 51.8-.9-1.1-45.9-103.7-45.9-104.9 0-.5 10.4-24.6 23.1-53.7l23.2-52.7 22.4 50.2c12.3 27.7 22.9 51.7 23.5 53.5zm-103.5 79.8c13.8 31.4 25.2 57.6 25.2 58.3.1 1-15.4 1.2-76 1l-76.1-.3-26.9-57.9c-14.8-31.9-26.9-58.1-26.9-58.3 0-.2 35-.2 77.8-.1l77.7.3 25.2 57z"/></svg>