<?xml version="1.0" encoding="UTF-8" standalone="no" ?>
<!DOCTYPE svg PUBLIC "-//W3C//DTD SVG 1.1//EN" "http://www.w3.org/Graphics/SVG/1.1/DTD/svg11.dtd">
<svg xmlns="http://www.w3.org/2000/svg" xmlns:xlink="http://www.w3.org/1999/xlink" version="1.1" width="1280" height="1024" viewBox="0 0 1280 1024" xml:space="preserve">
<desc>Created with Fabric.js 3.6.3</desc>
<defs>
</defs>
<g transform="matrix(1.9692780337941629 0 0 1.9692780337941629 640.0153846153846 512.012312418764)" id="background-logo"  >
<rect style="stroke: none; stroke-width: 1; stroke-dasharray: none; stroke-linecap: butt; stroke-dashoffset: 0; stroke-linejoin: miter; stroke-miterlimit: 4; fill: rgb(255,255,255); fill-rule: nonzero; opacity: 1;"  paint-order="stroke"  x="-325" y="-260" rx="0" ry="0" width="650" height="520" />
</g>
<g transform="matrix(1.9692780337941629 0 0 1.9692780337941629 594.539513052727 398.135475421891)" id="logo-logo"  >
<g style=""  paint-order="stroke"   >
		<g transform="matrix(0.12074650211098122 0 0 -0.12074650211098122 79.79196098082832 -2.101847722431245)"  >
<path style="stroke: none; stroke-width: 1; stroke-dasharray: none; stroke-linecap: butt; stroke-dashoffset: 0; stroke-linejoin: miter; stroke-miterlimit: 4; fill: rgb(11,15,27); fill-rule: nonzero; opacity: 1;"  paint-order="stroke"  transform=" translate(-1814.535, -1213.0395)" d="m 1922.38 819.719 h -215.04 l -0.65 786.641 l 190.66 -69.7 c 8.09 -2.88 16.4 -3.64 24.45 -2.13 l 0.58 -714.811" stroke-linecap="round" />
</g>
		<g transform="matrix(0.12074650211098122 0 0 -0.12074650211098122 -3.5231275586259017 -48.28738593452002)"  >
<path style="stroke: none; stroke-width: 1; stroke-dasharray: none; stroke-linecap: butt; stroke-dashoffset: 0; stroke-linejoin: miter; stroke-miterlimit: 4; fill: rgb(11,15,27); fill-rule: nonzero; opacity: 1;"  paint-order="stroke"  transform=" translate(-1127.347, -1594.42)" d="m 1507.76 1681.48 l -670.127 -375.53 l -90.699 195.45 l 680.566 381.49 l 66.59 -182.17 c 0 -0.17 0.21 -0.17 0.21 -0.17 c 0.19 -0.4 0.19 -0.77 0.43 -1.17 c 0.55 -1.54 1.32 -2.89 2.05 -4.42 c 0.19 -0.57 0.63 -1.17 1.03 -1.74 c 0.53 -1.13 1.31 -2.31 2.24 -3.65 c 0.44 -0.41 0.63 -0.77 1.03 -1.35 c 0.73 -0.95 1.5 -1.74 2.29 -2.5 l -0.2 -0.2 c 0.39 -0.41 0.58 -0.57 0.94 -0.77 c 0.39 -0.4 0.58 -0.57 0.97 -0.97 c 0.96 -0.77 1.76 -1.55 2.53 -2.12 l 0.15 -0.18" stroke-linecap="round" />
</g>
		<g transform="matrix(0.12074650211098122 0 0 -0.12074650211098122 80.5804564776879 -86.0269543317331)"  >
<path style="stroke: none; stroke-width: 1; stroke-dasharray: none; stroke-linecap: butt; stroke-dashoffset: 0; stroke-linejoin: miter; stroke-miterlimit: 4; fill: rgb(246,135,18); fill-rule: nonzero; opacity: 1;"  paint-order="stroke"  transform=" translate(-1817.701165014042, -1998.208099440044)" d="m 1901.5 1634.86 l -15.48 5.66 l -72.69 26.62 l -15.13 5.51 l -72.78 26.61 l -15.12 5.56 l -72.75 26.63 l -16.3 5.92 l 254.81 254.83 l 275.47 -107.31 z m 0.58 447.74 l -97.97 251.48 l 252.36 -97.14 l 97.1 -252.37 z m -345.23 -280.84 l -5.95 16.35 l -26.6 72.68 l -5.57 15.17 l -26.58 72.72 l -5.5 15.15 l -26.65 72.75 l -5.68 15.41 l 250.03 250.04 l 107.35 -275.43 z m 725.14 97.36 c 0.36 2.93 0.25 6.03 -0.19 9.04 c -0.44 4.1 -1.56 8.22 -3.17 12.13 l -142.77 370.99 c -0.1 0.38 -0.29 0.65 -0.44 1.01 c -0.29 0.82 -0.69 1.63 -1.08 2.39 c -0.34 0.67 -0.59 1.28 -0.92 1.87 c -0.34 0.72 -0.77 1.46 -1.28 2.18 c -0.33 0.63 -0.68 1.22 -1.06 1.75 c -0.5 0.72 -0.87 1.32 -1.42 1.98 c -0.44 0.59 -0.88 1.17 -1.27 1.72 c -0.44 0.52 -0.88 1.02 -1.31 1.53 l 0.03 0.05 c -0.03 0.08 -0.03 0.08 -0.07 0.12 c -0.3 0.23 -0.65 0.51 -0.9 0.79 c -0.3 0.29 -0.52 0.62 -0.77 0.87 c -0.04 0.01 -0.04 0.01 -0.11 0.09 l -0.08 -0.08 c -0.51 0.45 -0.99 0.89 -1.52 1.35 c -0.55 0.42 -1.14 0.87 -1.71 1.24 c -0.68 0.54 -1.26 0.97 -2.01 1.44 c -0.48 0.37 -1.06 0.74 -1.75 1.15 c -0.69 0.41 -1.42 0.83 -2.15 1.18 c -0.62 0.41 -1.21 0.64 -1.86 0.95 c -0.77 0.39 -1.61 0.75 -2.42 1.08 c -0.35 0.17 -0.6 0.31 -0.97 0.43 l -371.05 142.81 c -3.91 1.63 -7.95 2.68 -12.1 3.14 c -2.99 0.4 -6.11 0.5 -9.03 0.25 c -10.65 -0.75 -21 -5.07 -29.13 -12.96 l -322.49 -322.54 c -12.98 -12.96 -17.24 -32.07 -10.89 -49.24 l 137.99 -377.11 c 0.1 -0.07 0.1 -0.15 0.14 -0.2 c 0.15 -0.43 0.3 -0.79 0.5 -1.19 c 0.59 -1.47 1.32 -2.91 2.05 -4.35 c 0.3 -0.59 0.63 -1.19 1.03 -1.72 c 0.57 -1.24 1.41 -2.42 2.24 -3.64 c 0.34 -0.42 0.68 -0.89 1.07 -1.47 c 0.69 -0.86 1.46 -1.67 2.15 -2.51 l -0.1 -0.12 c 0.29 -0.33 0.64 -0.52 0.98 -0.84 c 0.35 -0.33 0.54 -0.67 0.83 -1 l 0.14 0.12 c 0.88 -0.7 1.65 -1.49 2.49 -2.18 c 0.54 -0.35 1.09 -0.72 1.53 -1.05 c 1.16 -0.85 2.37 -1.64 3.65 -2.29 c 0.5 -0.39 1.12 -0.69 1.71 -0.98 c 1.41 -0.75 2.88 -1.44 4.29 -2.07 c 0.44 -0.14 0.83 -0.33 1.21 -0.44 c 0.06 -0.03 0.1 -0.06 0.21 -0.15 l 377.09 -138.05 c 17.18 -6.31 36.35 -2.06 49.29 10.87 L 2269.12 1870 c 7.91 8.16 12.14 18.51 12.87 29.12" stroke-linecap="round" />
</g>
		<g transform="matrix(0.12074650211098122 0 0 -0.12074650211098122 -3.5231275586259017 45.89488806660222)"  >
<path style="stroke: none; stroke-width: 1; stroke-dasharray: none; stroke-linecap: butt; stroke-dashoffset: 0; stroke-linejoin: miter; stroke-miterlimit: 4; fill: rgb(11,15,27); fill-rule: nonzero; opacity: 1;"  paint-order="stroke"  transform=" translate(-1127.9395, -809.115)" d="M 1506.25 701.281 L 1415.14 505.27 L 749.629 916.801 L 840.699 1112.96 L 1506.25 701.281" stroke-linecap="round" />
</g>
		<g transform="matrix(0.12074650211098122 0 0 -0.12074650211098122 75.53024190770321 92.62438608147502)"  >
<path style="stroke: none; stroke-width: 1; stroke-dasharray: none; stroke-linecap: butt; stroke-dashoffset: 0; stroke-linejoin: miter; stroke-miterlimit: 4; fill: rgb(246,135,18); fill-rule: nonzero; opacity: 1;"  paint-order="stroke"  transform=" translate(-1815.17, -409.8595)" d="m 1621.07 93.6719 l -6.93 14.9571 l -32.54 70.223 l -6.85 14.617 l -32.64 70.281 l -6.77 14.621 l -32.61 70.231 l -7.31 15.707 h 360.35 L 1974.68 93.6719 Z m 317.02 316.2071 l 108.52 247.133 l 109.74 -247.133 l -109.74 -247.141 z m -442.67 45.562 l 7.31 15.739 l 32.61 70.218 l 6.77 14.672 l 32.64 70.219 l 6.74 14.633 l 32.65 70.226 l 6.93 14.922 h 353.61 L 1855.77 455.441 Z M 2077.01 11.4609 c 2.29 1.8672 4.39 4.168 6.3 6.5508 c 2.48 3.2383 4.62 6.9102 6.29 10.8281 L 2250.96 392.18 c 0.15 0.3 0.26 0.648 0.4 1.011 c 0.33 0.789 0.63 1.618 0.98 2.438 c 0.19 0.66 0.49 1.293 0.63 1.953 c 0.25 0.77 0.48 1.59 0.63 2.406 c 0.2 0.692 0.39 1.391 0.44 2.024 c 0.2 0.859 0.35 1.609 0.43 2.437 c 0.11 0.711 0.21 1.391 0.29 2.11 c 0.07 0.621 0.11 1.339 0.22 2.023 h 0.07 c 0 0.09 0 0.09 0 0.148 c 0 0.36 -0.04 0.75 -0.04 1.149 c 0 0.461 0.04 0.793 0.04 1.191 c 0 0.039 0 0.039 0 0.149 h -0.07 c -0.11 0.64 -0.15 1.32 -0.22 2.043 c -0.08 0.636 -0.18 1.386 -0.29 2.019 c -0.08 0.899 -0.23 1.578 -0.43 2.438 c -0.05 0.64 -0.24 1.34 -0.44 2.019 c -0.15 0.864 -0.38 1.672 -0.63 2.403 c -0.14 0.757 -0.44 1.339 -0.63 2.007 c -0.35 0.813 -0.65 1.633 -0.98 2.461 c -0.14 0.36 -0.25 0.641 -0.4 1 l -161.36 363.34 c -1.67 3.93 -3.81 7.563 -6.29 10.789 c -1.91 2.403 -4.01 4.653 -6.3 6.582 c -8.06 7.008 -18.39 11.219 -29.72 11.399 h -456.14 c -18.34 0 -34.85 -10.539 -42.54 -27.141 L 1379.57 428.32 c 0 -0.101 -0.04 -0.211 -0.04 -0.211 c -0.19 -0.461 -0.3 -0.789 -0.48 -1.187 c -0.65 -1.442 -1.13 -2.981 -1.67 -4.543 c -0.19 -0.641 -0.4 -1.238 -0.48 -1.93 c -0.44 -1.328 -0.69 -2.73 -0.94 -4.168 c -0.05 -0.543 -0.19 -1.082 -0.29 -1.769 c -0.15 -1.114 -0.15 -2.262 -0.24 -3.293 h -0.14 c 0 -0.438 0.05 -0.879 0.05 -1.34 c 0 -0.438 -0.05 -0.84 -0.05 -1.297 h 0.14 c 0.09 -1.102 0.09 -2.23 0.24 -3.312 c 0.1 -0.629 0.24 -1.258 0.29 -1.801 c 0.25 -1.457 0.5 -2.86 0.94 -4.199 c 0.08 -0.622 0.29 -1.27 0.48 -1.911 c 0.54 -1.539 1.02 -3.027 1.67 -4.531 c 0.18 -0.406 0.29 -0.75 0.48 -1.148 c 0 -0.032 0.04 -0.078 0.04 -0.231 L 1548.61 27.1289 C 1556.3 10.5391 1572.81 0 1591.15 0 h 456.14 c 11.33 0.238281 21.66 4.48828 29.72 11.4609" stroke-linecap="round" />
</g>
		<g transform="matrix(0.12074650211098122 0 0 -0.12074650211098122 -83.55151704681424 -3.329690748233986)"  >
<path style="stroke: none; stroke-width: 1; stroke-dasharray: none; stroke-linecap: butt; stroke-dashoffset: 0; stroke-linejoin: miter; stroke-miterlimit: 4; fill: rgb(246,135,18); fill-rule: nonzero; opacity: 1;"  paint-order="stroke"  transform=" translate(-439.89850000000007, -1206.084)" d="m 634.008 1522.28 l 6.867 -14.98 l 32.586 -70.19 l 6.812 -14.61 l 32.633 -70.27 l 6.762 -14.63 l 32.641 -70.27 l 7.3 -15.71 H 399.246 L 280.398 1522.28 Z M 316.91 1206.09 L 208.453 958.949 L 98.6523 1206.09 L 208.453 1453.19 Z m 442.699 -45.51 l -7.3 -15.8 l -32.641 -70.17 l -6.762 -14.72 l -32.633 -70.23 l -6.757 -14.609 l -32.641 -70.262 l -6.867 -14.898 h -353.61 l 118.848 270.689 z m -581.613 443.91 c -2.23 -1.88 -4.367 -4.16 -6.215 -6.54 c -2.586 -3.25 -4.715 -6.93 -6.297 -10.86 L 4.07813 1223.8 c -0.14844 -0.34 -0.26954 -0.65 -0.38672 -1 c -0.38672 -0.83 -0.6875 -1.63 -0.95703 -2.44 c -0.21875 -0.75 -0.50391 -1.31 -0.64844 -1.97 c -0.24219 -0.78 -0.48047 -1.62 -0.64453 -2.42 c -0.20313 -0.71 -0.36719 -1.39 -0.449222 -2.02 c -0.199219 -0.88 -0.347657 -1.61 -0.421875 -2.44 c -0.140625 -0.71 -0.214844 -1.43 -0.351563 -2.1 c -0.019531 -0.69 -0.074219 -1.35 -0.09375 -2 H 0 c 0 -0.1 0 -0.1 0 -0.15 c 0 -0.36 0.0546875 -0.78 0.0546875 -1.17 c 0 -0.44 -0.0546875 -0.83 -0.0546875 -1.16 c 0 -0.06 0 -0.06 0 -0.15 h 0.125 c 0.019531 -0.72 0.074219 -1.37 0.09375 -2.06 c 0.136719 -0.66 0.210938 -1.38 0.351563 -2.04 c 0.074218 -0.88 0.222656 -1.63 0.390625 -2.46 c 0.113282 -0.68 0.277342 -1.34 0.480472 -2.05 c 0.16406 -0.79 0.40234 -1.62 0.64453 -2.38 c 0.125 -0.73 0.42969 -1.31 0.64844 -2 c 0.26953 -0.79 0.57031 -1.61 0.95703 -2.49 c 0.11718 -0.31 0.23828 -0.59 0.38672 -0.97 L 165.484 825 c 1.582 -3.918 3.711 -7.57 6.297 -10.789 c 1.848 -2.391 3.985 -4.641 6.215 -6.57 c 8.051 -7.012 18.426 -11.219 29.77 -11.403 h 456.101 c 18.324 0 34.84 10.532 42.539 27.133 L 875.48 1187.66 c 0 0.08 0 0.17 0 0.21 c 0.196 0.42 0.348 0.75 0.551 1.17 c 0.594 1.45 1.082 2.96 1.586 4.5 c 0.203 0.64 0.395 1.28 0.496 1.96 c 0.45 1.32 0.742 2.72 0.946 4.17 c 0.101 0.51 0.203 1.16 0.296 1.76 c 0.149 1.08 0.149 2.25 0.247 3.35 h 0.195 c 0 0.46 -0.094 0.82 -0.094 1.31 c 0 0.44 0.094 0.83 0.094 1.32 h -0.195 c -0.098 1.07 -0.098 2.19 -0.247 3.29 c -0.093 0.66 -0.195 1.25 -0.296 1.79 c -0.204 1.46 -0.496 2.83 -0.946 4.19 c -0.101 0.64 -0.246 1.27 -0.496 1.93 c -0.504 1.53 -0.992 3.03 -1.586 4.49 c -0.25 0.41 -0.355 0.76 -0.551 1.2 c 0 0.02 0 0.09 0 0.22 L 706.406 1588.8 c -7.699 16.58 -24.215 27.13 -42.539 27.13 H 207.766 c -11.344 -0.2 -21.719 -4.47 -29.77 -11.44" stroke-linecap="round" />
</g>
</g>
</g>
<g transform="matrix(1.9692780337941629 0 0 1.9692780337941629 641.8349975186104 809.8693219802158)" id="text-logo-path"  >
<path style="stroke: rgb(11,15,27); stroke-width: 4; stroke-dasharray: none; stroke-linecap: butt; stroke-dashoffset: 0; stroke-linejoin: miter; stroke-miterlimit: 4; fill: rgb(11,15,27); fill-rule: nonzero; opacity: 1;"  paint-order="stroke"  transform=" translate(-319.60499999999996, 16.335)" d="M 8.05 -40.52 Q 6.67 -40.52 5.68 -41.51 Q 4.69 -42.5 4.69 -43.89 L 4.69 -43.89 L 4.69 -44.15 Q 4.69 -45.54 5.68 -46.53 Q 6.67 -47.52 8.05 -47.52 L 8.05 -47.52 L 8.45 -47.52 Q 9.83 -47.52 10.82 -46.53 Q 11.81 -45.54 11.81 -44.15 L 11.81 -44.15 L 11.81 -43.89 Q 11.81 -42.5 10.82 -41.51 Q 9.83 -40.52 8.45 -40.52 L 8.45 -40.52 L 8.05 -40.52 Z M 8.18 0.33 Q 6.93 0.33 6.07 -0.53 Q 5.21 -1.39 5.21 -2.64 L 5.21 -2.64 L 5.21 -30.95 Q 5.21 -32.21 6.07 -33.1 Q 6.93 -33.99 8.18 -33.99 L 8.18 -33.99 Q 9.5 -33.99 10.36 -33.13 Q 11.22 -32.27 11.22 -30.95 L 11.22 -30.95 L 11.22 -2.64 Q 11.22 -1.39 10.33 -0.53 Q 9.44 0.33 8.18 0.33 L 8.18 0.33 Z M 24.62 0.33 Q 23.36 0.33 22.51 -0.53 Q 21.65 -1.39 21.65 -2.64 L 21.65 -2.64 L 21.65 -30.95 Q 21.65 -32.21 22.51 -33.1 Q 23.36 -33.99 24.62 -33.99 L 24.62 -33.99 Q 25.87 -33.99 26.76 -33.1 Q 27.65 -32.21 27.65 -30.95 L 27.65 -30.95 L 27.65 -28.25 Q 30.16 -31.02 33.07 -32.67 Q 35.97 -34.32 39.93 -34.32 L 39.93 -34.32 Q 43.56 -34.32 46.23 -32.6 Q 48.91 -30.89 50.33 -27.92 Q 51.74 -24.95 51.74 -21.38 L 51.74 -21.38 L 51.74 -2.64 Q 51.74 -1.39 50.85 -0.53 Q 49.96 0.33 48.71 0.33 L 48.71 0.33 Q 47.45 0.33 46.6 -0.53 Q 45.74 -1.39 45.74 -2.64 L 45.74 -2.64 L 45.74 -20.72 Q 45.74 -28.78 38.48 -28.78 L 38.48 -28.78 Q 35.18 -28.78 32.57 -27.06 Q 29.96 -25.34 27.65 -22.44 L 27.65 -22.44 L 27.65 -2.64 Q 27.65 -1.39 26.76 -0.53 Q 25.87 0.33 24.62 0.33 L 24.62 0.33 Z M 72.73 0.66 Q 66.13 0.66 60.72 -2.31 L 60.72 -2.31 Q 59.6 -3.1 59.6 -4.49 L 59.6 -4.49 Q 59.6 -5.54 60.32 -6.34 Q 61.05 -7.13 62.17 -7.13 L 62.17 -7.13 Q 62.77 -7.13 63.36 -6.86 L 63.36 -6.86 Q 65.47 -5.94 67.58 -5.41 Q 69.7 -4.88 72.34 -4.88 L 72.34 -4.88 Q 79.66 -4.88 79.66 -9.57 L 79.66 -9.57 Q 79.66 -11.09 77.98 -11.88 Q 76.3 -12.67 72.47 -13.66 L 72.47 -13.66 Q 68.57 -14.59 66.03 -15.58 Q 63.49 -16.57 61.68 -18.58 Q 59.86 -20.59 59.86 -23.89 L 59.86 -23.89 Q 59.86 -28.51 63.2 -31.42 Q 66.53 -34.32 72.73 -34.32 L 72.73 -34.32 Q 77.81 -34.32 82.3 -32.67 L 82.3 -32.67 Q 83.23 -32.41 83.72 -31.68 Q 84.22 -30.95 84.22 -30.16 L 84.22 -30.16 Q 84.22 -29.11 83.46 -28.31 Q 82.7 -27.52 81.58 -27.52 L 81.58 -27.52 Q 81.25 -27.52 80.72 -27.65 L 80.72 -27.65 Q 76.89 -28.84 73.19 -28.84 L 73.19 -28.84 Q 69.63 -28.84 67.62 -27.55 Q 65.6 -26.27 65.6 -24.22 L 65.6 -24.22 Q 65.6 -22.24 67.45 -21.32 Q 69.3 -20.39 73.19 -19.54 L 73.19 -19.54 Q 77.09 -18.55 79.53 -17.59 Q 81.97 -16.63 83.72 -14.59 Q 85.47 -12.54 85.47 -9.11 L 85.47 -9.11 Q 85.47 -4.88 82.14 -2.11 Q 78.8 0.66 72.73 0.66 L 72.73 0.66 Z M 96.36 -40.52 Q 94.97 -40.52 93.98 -41.51 Q 92.99 -42.5 92.99 -43.89 L 92.99 -43.89 L 92.99 -44.15 Q 92.99 -45.54 93.98 -46.53 Q 94.97 -47.52 96.36 -47.52 L 96.36 -47.52 L 96.76 -47.52 Q 98.14 -47.52 99.13 -46.53 Q 100.12 -45.54 100.12 -44.15 L 100.12 -44.15 L 100.12 -43.89 Q 100.12 -42.5 99.13 -41.51 Q 98.14 -40.52 96.76 -40.52 L 96.76 -40.52 L 96.36 -40.52 Z M 96.49 0.33 Q 95.24 0.33 94.38 -0.53 Q 93.52 -1.39 93.52 -2.64 L 93.52 -2.64 L 93.52 -30.95 Q 93.52 -32.21 94.38 -33.1 Q 95.24 -33.99 96.49 -33.99 L 96.49 -33.99 Q 97.81 -33.99 98.67 -33.13 Q 99.53 -32.27 99.53 -30.95 L 99.53 -30.95 L 99.53 -2.64 Q 99.53 -1.39 98.64 -0.53 Q 97.75 0.33 96.49 0.33 L 96.49 0.33 Z M 125.66 15.84 Q 121.84 15.84 117.94 14.85 Q 114.05 13.86 111.54 12.41 L 111.54 12.41 Q 110.35 11.68 110.35 10.1 L 110.35 10.1 Q 110.35 9.04 111.11 8.22 Q 111.87 7.39 112.99 7.39 L 112.99 7.39 Q 113.52 7.39 114.18 7.66 L 114.18 7.66 Q 119.2 10.16 125.07 10.16 L 125.07 10.16 Q 135.17 10.16 135.17 -0.59 L 135.17 -0.59 L 135.17 -5.02 Q 130.48 0 123.88 0 L 123.88 0 Q 119.99 0 116.32 -1.95 Q 112.66 -3.89 110.29 -7.76 Q 107.91 -11.62 107.91 -17.16 L 107.91 -17.16 Q 107.91 -22.7 110.29 -26.57 Q 112.66 -30.43 116.32 -32.37 Q 119.99 -34.32 123.88 -34.32 L 123.88 -34.32 Q 130.48 -34.32 135.17 -29.3 L 135.17 -29.3 L 135.17 -30.95 Q 135.17 -32.21 136.03 -33.1 Q 136.88 -33.99 138.14 -33.99 L 138.14 -33.99 Q 139.39 -33.99 140.28 -33.1 Q 141.17 -32.21 141.17 -30.95 L 141.17 -30.95 L 141.17 -1.45 Q 141.17 6.86 137.15 11.35 Q 133.12 15.84 125.66 15.84 L 125.66 15.84 Z M 125.14 -5.48 Q 128.24 -5.48 130.61 -6.8 Q 132.99 -8.12 135.17 -10.36 L 135.17 -10.36 L 135.17 -23.96 Q 132.99 -26.2 130.61 -27.52 Q 128.24 -28.84 125.14 -28.84 L 125.14 -28.84 Q 120.19 -28.84 117.05 -25.84 Q 113.92 -22.84 113.92 -17.16 L 113.92 -17.16 Q 113.92 -11.48 117.05 -8.48 Q 120.19 -5.48 125.14 -5.48 L 125.14 -5.48 Z M 154.57 0.33 Q 153.32 0.33 152.46 -0.53 Q 151.6 -1.39 151.6 -2.64 L 151.6 -2.64 L 151.6 -45.47 Q 151.6 -46.73 152.46 -47.62 Q 153.32 -48.51 154.57 -48.51 L 154.57 -48.51 Q 155.83 -48.51 156.72 -47.62 Q 157.61 -46.73 157.61 -45.47 L 157.61 -45.47 L 157.61 -28.25 Q 160.12 -31.02 163.02 -32.67 Q 165.92 -34.32 169.88 -34.32 L 169.88 -34.32 Q 173.51 -34.32 176.19 -32.6 Q 178.86 -30.89 180.28 -27.92 Q 181.7 -24.95 181.7 -21.38 L 181.7 -21.38 L 181.7 -2.64 Q 181.7 -1.39 180.81 -0.53 Q 179.92 0.33 178.66 0.33 L 178.66 0.33 Q 177.41 0.33 176.55 -0.53 Q 175.69 -1.39 175.69 -2.64 L 175.69 -2.64 L 175.69 -20.72 Q 175.69 -28.78 168.43 -28.78 L 168.43 -28.78 Q 165.13 -28.78 162.52 -27.06 Q 159.92 -25.34 157.61 -22.44 L 157.61 -22.44 L 157.61 -2.64 Q 157.61 -1.39 156.72 -0.53 Q 155.83 0.33 154.57 0.33 L 154.57 0.33 Z M 202.62 0.66 Q 192.98 0.66 192.98 -8.05 L 192.98 -8.05 L 192.98 -28.51 L 188.3 -28.51 Q 187.77 -28.51 187.41 -28.88 Q 187.04 -29.24 187.04 -29.77 L 187.04 -29.77 Q 187.04 -30.43 187.64 -30.89 L 187.64 -30.89 L 196.61 -39.67 Q 197.21 -40.26 197.74 -40.26 L 197.74 -40.26 Q 198.26 -40.26 198.63 -39.86 Q 198.99 -39.47 198.99 -38.94 L 198.99 -38.94 L 198.99 -33.66 L 206.45 -33.66 Q 207.57 -33.66 208.3 -32.93 Q 209.02 -32.21 209.02 -31.09 L 209.02 -31.09 Q 209.02 -30.03 208.3 -29.27 Q 207.57 -28.51 206.45 -28.51 L 206.45 -28.51 L 198.99 -28.51 L 198.99 -8.58 Q 198.99 -6.01 200.21 -5.31 Q 201.43 -4.62 203.28 -4.62 L 203.28 -4.62 Q 204.6 -4.62 205.92 -5.02 L 205.92 -5.02 Q 206.18 -5.08 206.48 -5.15 Q 206.78 -5.21 207.24 -5.21 L 207.24 -5.21 Q 208.16 -5.21 208.89 -4.52 Q 209.62 -3.83 209.62 -2.84 L 209.62 -2.84 Q 209.62 -1.32 208.1 -0.53 L 208.1 -0.53 Q 205.52 0.66 202.62 0.66 L 202.62 0.66 Z M 241.96 0.66 Q 239.05 0.66 236.58 -0.53 Q 234.1 -1.72 232.65 -3.99 Q 231.2 -6.27 231.2 -9.24 L 231.2 -9.24 Q 231.2 -14.12 235.06 -17.03 Q 238.92 -19.93 246.38 -19.93 L 246.38 -19.93 L 254.36 -19.93 L 254.36 -20.46 Q 254.36 -24.82 252.22 -26.73 Q 250.07 -28.64 245.52 -28.64 L 245.52 -28.64 Q 243.01 -28.64 241.06 -28.25 Q 239.12 -27.85 236.74 -27.06 L 236.74 -27.06 Q 236.21 -26.93 235.88 -26.93 L 235.88 -26.93 Q 234.89 -26.93 234.17 -27.65 Q 233.44 -28.38 233.44 -29.44 L 233.44 -29.44 Q 233.44 -31.22 235.16 -31.94 L 235.16 -31.94 Q 240.77 -34.32 246.58 -34.32 L 246.58 -34.32 Q 251.13 -34.32 254.26 -32.47 Q 257.4 -30.62 258.88 -27.69 Q 260.37 -24.75 260.37 -21.32 L 260.37 -21.32 L 260.37 -2.64 Q 260.37 -1.39 259.48 -0.53 Q 258.59 0.33 257.33 0.33 L 257.33 0.33 Q 256.08 0.33 255.22 -0.53 Q 254.36 -1.39 254.36 -2.64 L 254.36 -2.64 L 254.36 -4.36 Q 249.48 0.66 241.96 0.66 L 241.96 0.66 Z M 244.2 -4.62 Q 247.1 -4.62 249.81 -6.04 Q 252.52 -7.46 254.36 -9.57 L 254.36 -9.57 L 254.36 -15.11 L 247.17 -15.11 Q 237.2 -15.11 237.2 -9.9 L 237.2 -9.9 Q 237.2 -7.52 238.82 -6.07 Q 240.44 -4.62 244.2 -4.62 L 244.2 -4.62 Z M 273.44 0.33 Q 272.18 0.33 271.33 -0.53 Q 270.47 -1.39 270.47 -2.64 L 270.47 -2.64 L 270.47 -30.95 Q 270.47 -32.21 271.33 -33.1 Q 272.18 -33.99 273.44 -33.99 L 273.44 -33.99 Q 274.69 -33.99 275.58 -33.1 Q 276.47 -32.21 276.47 -30.95 L 276.47 -30.95 L 276.47 -28.12 Q 281.09 -34.32 286.84 -34.32 L 286.84 -34.32 L 287.17 -34.32 Q 288.42 -34.32 289.24 -33.46 Q 290.07 -32.6 290.07 -31.35 L 290.07 -31.35 Q 290.07 -30.1 289.21 -29.3 Q 288.35 -28.51 287.03 -28.51 L 287.03 -28.51 L 286.7 -28.51 Q 283.54 -28.51 280.9 -26.96 Q 278.26 -25.41 276.47 -22.7 L 276.47 -22.7 L 276.47 -2.64 Q 276.47 -1.39 275.58 -0.53 Q 274.69 0.33 273.44 0.33 L 273.44 0.33 Z M 310.33 0.66 Q 305.58 0.66 301.55 -1.45 Q 297.53 -3.56 295.12 -7.52 Q 292.71 -11.48 292.71 -16.83 L 292.71 -16.83 Q 292.71 -22.18 295.12 -26.14 Q 297.53 -30.1 301.55 -32.21 Q 305.58 -34.32 310.33 -34.32 L 310.33 -34.32 Q 313.83 -34.32 316.37 -33.43 Q 318.91 -32.54 321.09 -31.15 L 321.09 -31.15 Q 322.41 -30.29 322.41 -28.84 L 322.41 -28.84 Q 322.41 -27.85 321.65 -27.03 Q 320.89 -26.2 319.9 -26.2 L 319.9 -26.2 Q 319.18 -26.2 318.45 -26.6 L 318.45 -26.6 Q 316.27 -27.72 314.72 -28.21 Q 313.17 -28.71 310.86 -28.71 L 310.86 -28.71 Q 305.18 -28.71 301.95 -25.44 Q 298.72 -22.18 298.72 -16.83 L 298.72 -16.83 Q 298.72 -11.48 301.95 -8.22 Q 305.18 -4.95 310.86 -4.95 L 310.86 -4.95 Q 313.17 -4.95 314.72 -5.45 Q 316.27 -5.94 318.45 -7.06 L 318.45 -7.06 Q 319.18 -7.46 319.9 -7.46 L 319.9 -7.46 Q 320.89 -7.46 321.65 -6.63 Q 322.41 -5.81 322.41 -4.82 L 322.41 -4.82 Q 322.41 -3.37 321.09 -2.51 L 321.09 -2.51 Q 318.91 -1.12 316.37 -0.23 Q 313.83 0.66 310.33 0.66 L 310.33 0.66 Z M 332.9 0.33 Q 331.65 0.33 330.79 -0.53 Q 329.93 -1.39 329.93 -2.64 L 329.93 -2.64 L 329.93 -45.47 Q 329.93 -46.73 330.79 -47.62 Q 331.65 -48.51 332.9 -48.51 L 332.9 -48.51 Q 334.16 -48.51 335.05 -47.62 Q 335.94 -46.73 335.94 -45.47 L 335.94 -45.47 L 335.94 -28.25 Q 338.45 -31.02 341.35 -32.67 Q 344.26 -34.32 348.22 -34.32 L 348.22 -34.32 Q 351.85 -34.32 354.52 -32.6 Q 357.19 -30.89 358.61 -27.92 Q 360.03 -24.95 360.03 -21.38 L 360.03 -21.38 L 360.03 -2.64 Q 360.03 -1.39 359.14 -0.53 Q 358.25 0.33 356.99 0.33 L 356.99 0.33 Q 355.74 0.33 354.88 -0.53 Q 354.02 -1.39 354.02 -2.64 L 354.02 -2.64 L 354.02 -20.72 Q 354.02 -28.78 346.76 -28.78 L 346.76 -28.78 Q 343.46 -28.78 340.86 -27.06 Q 338.25 -25.34 335.94 -22.44 L 335.94 -22.44 L 335.94 -2.64 Q 335.94 -1.39 335.05 -0.53 Q 334.16 0.33 332.9 0.33 L 332.9 0.33 Z M 372.97 -40.52 Q 371.58 -40.52 370.59 -41.51 Q 369.6 -42.5 369.6 -43.89 L 369.6 -43.89 L 369.6 -44.15 Q 369.6 -45.54 370.59 -46.53 Q 371.58 -47.52 372.97 -47.52 L 372.97 -47.52 L 373.36 -47.52 Q 374.75 -47.52 375.74 -46.53 Q 376.73 -45.54 376.73 -44.15 L 376.73 -44.15 L 376.73 -43.89 Q 376.73 -42.5 375.74 -41.51 Q 374.75 -40.52 373.36 -40.52 L 373.36 -40.52 L 372.97 -40.52 Z M 373.1 0.33 Q 371.84 0.33 370.99 -0.53 Q 370.13 -1.39 370.13 -2.64 L 370.13 -2.64 L 370.13 -30.95 Q 370.13 -32.21 370.99 -33.1 Q 371.84 -33.99 373.1 -33.99 L 373.1 -33.99 Q 374.42 -33.99 375.28 -33.13 Q 376.13 -32.27 376.13 -30.95 L 376.13 -30.95 L 376.13 -2.64 Q 376.13 -1.39 375.24 -0.53 Q 374.35 0.33 373.1 0.33 L 373.1 0.33 Z M 398.18 0.66 Q 388.54 0.66 388.54 -8.05 L 388.54 -8.05 L 388.54 -28.51 L 383.86 -28.51 Q 383.33 -28.51 382.97 -28.88 Q 382.6 -29.24 382.6 -29.77 L 382.6 -29.77 Q 382.6 -30.43 383.2 -30.89 L 383.2 -30.89 L 392.17 -39.67 Q 392.77 -40.26 393.29 -40.26 L 393.29 -40.26 Q 393.82 -40.26 394.19 -39.86 Q 394.55 -39.47 394.55 -38.94 L 394.55 -38.94 L 394.55 -33.66 L 402.01 -33.66 Q 403.13 -33.66 403.85 -32.93 Q 404.58 -32.21 404.58 -31.09 L 404.58 -31.09 Q 404.58 -30.03 403.85 -29.27 Q 403.13 -28.51 402.01 -28.51 L 402.01 -28.51 L 394.55 -28.51 L 394.55 -8.58 Q 394.55 -6.01 395.77 -5.31 Q 396.99 -4.62 398.84 -4.62 L 398.84 -4.62 Q 400.16 -4.62 401.48 -5.02 L 401.48 -5.02 Q 401.74 -5.08 402.04 -5.15 Q 402.34 -5.21 402.8 -5.21 L 402.8 -5.21 Q 403.72 -5.21 404.45 -4.52 Q 405.17 -3.83 405.17 -2.84 L 405.17 -2.84 Q 405.17 -1.32 403.66 -0.53 L 403.66 -0.53 Q 401.08 0.66 398.18 0.66 L 398.18 0.66 Z M 426.36 0.66 Q 418.31 0.66 413.79 -3.93 Q 409.27 -8.51 409.27 -16.83 L 409.27 -16.83 Q 409.27 -21.52 410.98 -25.48 Q 412.7 -29.44 416.26 -31.88 Q 419.83 -34.32 425.04 -34.32 L 425.04 -34.32 Q 429.92 -34.32 433.49 -32.04 Q 437.05 -29.77 438.9 -25.97 Q 440.75 -22.18 440.75 -17.69 L 440.75 -17.69 Q 440.75 -16.43 439.92 -15.58 Q 439.1 -14.72 437.71 -14.72 L 437.71 -14.72 L 415.34 -14.72 Q 415.87 -10.1 418.77 -7.52 Q 421.67 -4.95 426.89 -4.95 L 426.89 -4.95 Q 429.66 -4.95 431.74 -5.48 Q 433.82 -6.01 435.8 -7 L 435.8 -7 Q 436.33 -7.26 436.99 -7.26 L 436.99 -7.26 Q 438.04 -7.26 438.83 -6.53 Q 439.63 -5.81 439.63 -4.69 L 439.63 -4.69 Q 439.63 -3.23 437.91 -2.24 L 437.91 -2.24 Q 435.34 -0.79 432.83 -0.07 Q 430.32 0.66 426.36 0.66 L 426.36 0.66 Z M 415.34 -19.6 L 434.81 -19.6 Q 434.61 -22.84 433.13 -25.01 Q 431.64 -27.19 429.46 -28.21 Q 427.28 -29.24 425.04 -29.24 L 425.04 -29.24 Q 422.8 -29.24 420.62 -28.21 Q 418.44 -27.19 416.99 -25.01 Q 415.54 -22.84 415.34 -19.6 L 415.34 -19.6 Z M 464.24 0.66 Q 459.49 0.66 455.47 -1.45 Q 451.44 -3.56 449.03 -7.52 Q 446.62 -11.48 446.62 -16.83 L 446.62 -16.83 Q 446.62 -22.18 449.03 -26.14 Q 451.44 -30.1 455.47 -32.21 Q 459.49 -34.32 464.24 -34.32 L 464.24 -34.32 Q 467.74 -34.32 470.28 -33.43 Q 472.82 -32.54 475 -31.15 L 475 -31.15 Q 476.32 -30.29 476.32 -28.84 L 476.32 -28.84 Q 476.32 -27.85 475.56 -27.03 Q 474.8 -26.2 473.81 -26.2 L 473.81 -26.2 Q 473.09 -26.2 472.36 -26.6 L 472.36 -26.6 Q 470.18 -27.72 468.63 -28.21 Q 467.08 -28.71 464.77 -28.71 L 464.77 -28.71 Q 459.1 -28.71 455.86 -25.44 Q 452.63 -22.18 452.63 -16.83 L 452.63 -16.83 Q 452.63 -11.48 455.86 -8.22 Q 459.1 -4.95 464.77 -4.95 L 464.77 -4.95 Q 467.08 -4.95 468.63 -5.45 Q 470.18 -5.94 472.36 -7.06 L 472.36 -7.06 Q 473.09 -7.46 473.81 -7.46 L 473.81 -7.46 Q 474.8 -7.46 475.56 -6.63 Q 476.32 -5.81 476.32 -4.82 L 476.32 -4.82 Q 476.32 -3.37 475 -2.51 L 475 -2.51 Q 472.82 -1.12 470.28 -0.23 Q 467.74 0.66 464.24 0.66 L 464.24 0.66 Z M 495.46 0.66 Q 485.83 0.66 485.83 -8.05 L 485.83 -8.05 L 485.83 -28.51 L 481.14 -28.51 Q 480.61 -28.51 480.25 -28.88 Q 479.89 -29.24 479.89 -29.77 L 479.89 -29.77 Q 479.89 -30.43 480.48 -30.89 L 480.48 -30.89 L 489.46 -39.67 Q 490.05 -40.26 490.58 -40.26 L 490.58 -40.26 Q 491.11 -40.26 491.47 -39.86 Q 491.83 -39.47 491.83 -38.94 L 491.83 -38.94 L 491.83 -33.66 L 499.29 -33.66 Q 500.41 -33.66 501.14 -32.93 Q 501.86 -32.21 501.86 -31.09 L 501.86 -31.09 Q 501.86 -30.03 501.14 -29.27 Q 500.41 -28.51 499.29 -28.51 L 499.29 -28.51 L 491.83 -28.51 L 491.83 -8.58 Q 491.83 -6.01 493.05 -5.31 Q 494.27 -4.62 496.12 -4.62 L 496.12 -4.62 Q 497.44 -4.62 498.76 -5.02 L 498.76 -5.02 Q 499.03 -5.08 499.32 -5.15 Q 499.62 -5.21 500.08 -5.21 L 500.08 -5.21 Q 501.01 -5.21 501.73 -4.52 Q 502.46 -3.83 502.46 -2.84 L 502.46 -2.84 Q 502.46 -1.32 500.94 -0.53 L 500.94 -0.53 Q 498.37 0.66 495.46 0.66 L 495.46 0.66 Z M 520.54 0.66 Q 516.91 0.66 514.24 -1.06 Q 511.57 -2.77 510.15 -5.74 Q 508.73 -8.71 508.73 -12.28 L 508.73 -12.28 L 508.73 -31.02 Q 508.73 -32.27 509.62 -33.13 Q 510.51 -33.99 511.76 -33.99 L 511.76 -33.99 Q 513.02 -33.99 513.88 -33.13 Q 514.73 -32.27 514.73 -31.02 L 514.73 -31.02 L 514.73 -12.94 Q 514.73 -4.88 521.99 -4.88 L 521.99 -4.88 Q 525.29 -4.88 527.9 -6.6 Q 530.51 -8.32 532.82 -11.22 L 532.82 -11.22 L 532.82 -31.02 Q 532.82 -32.27 533.71 -33.13 Q 534.6 -33.99 535.85 -33.99 L 535.85 -33.99 Q 537.11 -33.99 537.97 -33.13 Q 538.82 -32.27 538.82 -31.02 L 538.82 -31.02 L 538.82 -2.71 Q 538.82 -1.45 537.97 -0.56 Q 537.11 0.33 535.85 0.33 L 535.85 0.33 Q 534.6 0.33 533.71 -0.56 Q 532.82 -1.45 532.82 -2.71 L 532.82 -2.71 L 532.82 -5.41 Q 530.31 -2.64 527.41 -0.99 Q 524.5 0.66 520.54 0.66 L 520.54 0.66 Z M 552.22 0.33 Q 550.97 0.33 550.11 -0.53 Q 549.25 -1.39 549.25 -2.64 L 549.25 -2.64 L 549.25 -30.95 Q 549.25 -32.21 550.11 -33.1 Q 550.97 -33.99 552.22 -33.99 L 552.22 -33.99 Q 553.48 -33.99 554.37 -33.1 Q 555.26 -32.21 555.26 -30.95 L 555.26 -30.95 L 555.26 -28.12 Q 559.88 -34.32 565.62 -34.32 L 565.62 -34.32 L 565.95 -34.32 Q 567.2 -34.32 568.03 -33.46 Q 568.85 -32.6 568.85 -31.35 L 568.85 -31.35 Q 568.85 -30.1 568 -29.3 Q 567.14 -28.51 565.82 -28.51 L 565.82 -28.51 L 565.49 -28.51 Q 562.32 -28.51 559.68 -26.96 Q 557.04 -25.41 555.26 -22.7 L 555.26 -22.7 L 555.26 -2.64 Q 555.26 -1.39 554.37 -0.53 Q 553.48 0.33 552.22 0.33 L 552.22 0.33 Z M 588.59 0.66 Q 580.54 0.66 576.01 -3.93 Q 571.49 -8.51 571.49 -16.83 L 571.49 -16.83 Q 571.49 -21.52 573.21 -25.48 Q 574.93 -29.44 578.49 -31.88 Q 582.05 -34.32 587.27 -34.32 L 587.27 -34.32 Q 592.15 -34.32 595.72 -32.04 Q 599.28 -29.77 601.13 -25.97 Q 602.98 -22.18 602.98 -17.69 L 602.98 -17.69 Q 602.98 -16.43 602.15 -15.58 Q 601.33 -14.72 599.94 -14.72 L 599.94 -14.72 L 577.57 -14.72 Q 578.09 -10.1 581 -7.52 Q 583.9 -4.95 589.12 -4.95 L 589.12 -4.95 Q 591.89 -4.95 593.97 -5.48 Q 596.05 -6.01 598.03 -7 L 598.03 -7 Q 598.55 -7.26 599.21 -7.26 L 599.21 -7.26 Q 600.27 -7.26 601.06 -6.53 Q 601.85 -5.81 601.85 -4.69 L 601.85 -4.69 Q 601.85 -3.23 600.14 -2.24 L 600.14 -2.24 Q 597.56 -0.79 595.06 -0.07 Q 592.55 0.66 588.59 0.66 L 588.59 0.66 Z M 577.57 -19.6 L 597.04 -19.6 Q 596.84 -22.84 595.35 -25.01 Q 593.87 -27.19 591.69 -28.21 Q 589.51 -29.24 587.27 -29.24 L 587.27 -29.24 Q 585.02 -29.24 582.85 -28.21 Q 580.67 -27.19 579.22 -25.01 Q 577.76 -22.84 577.57 -19.6 L 577.57 -19.6 Z M 621.79 0.66 Q 615.19 0.66 609.77 -2.31 L 609.77 -2.31 Q 608.65 -3.1 608.65 -4.49 L 608.65 -4.49 Q 608.65 -5.54 609.38 -6.34 Q 610.1 -7.13 611.23 -7.13 L 611.23 -7.13 Q 611.82 -7.13 612.41 -6.86 L 612.41 -6.86 Q 614.53 -5.94 616.64 -5.41 Q 618.75 -4.88 621.39 -4.88 L 621.39 -4.88 Q 628.72 -4.88 628.72 -9.57 L 628.72 -9.57 Q 628.72 -11.09 627.03 -11.88 Q 625.35 -12.67 621.52 -13.66 L 621.52 -13.66 Q 617.63 -14.59 615.09 -15.58 Q 612.55 -16.57 610.73 -18.58 Q 608.92 -20.59 608.92 -23.89 L 608.92 -23.89 Q 608.92 -28.51 612.25 -31.42 Q 615.58 -34.32 621.79 -34.32 L 621.79 -34.32 Q 626.87 -34.32 631.36 -32.67 L 631.36 -32.67 Q 632.28 -32.41 632.77 -31.68 Q 633.27 -30.95 633.27 -30.16 L 633.27 -30.16 Q 633.27 -29.11 632.51 -28.31 Q 631.75 -27.52 630.63 -27.52 L 630.63 -27.52 Q 630.3 -27.52 629.77 -27.65 L 629.77 -27.65 Q 625.94 -28.84 622.25 -28.84 L 622.25 -28.84 Q 618.68 -28.84 616.67 -27.55 Q 614.66 -26.27 614.66 -24.22 L 614.66 -24.22 Q 614.66 -22.24 616.51 -21.32 Q 618.35 -20.39 622.25 -19.54 L 622.25 -19.54 Q 626.14 -18.55 628.58 -17.59 Q 631.03 -16.63 632.77 -14.59 Q 634.52 -12.54 634.52 -9.11 L 634.52 -9.11 Q 634.52 -4.88 631.19 -2.11 Q 627.86 0.66 621.79 0.66 L 621.79 0.66 Z" stroke-linecap="round" />
</g>
</svg>