<?xml version="1.0" encoding="UTF-8" standalone="no" ?>
<!DOCTYPE svg PUBLIC "-//W3C//DTD SVG 1.1//EN" "http://www.w3.org/Graphics/SVG/1.1/DTD/svg11.dtd">
<svg xmlns="http://www.w3.org/2000/svg" xmlns:xlink="http://www.w3.org/1999/xlink" version="1.1" width="600" height="600" viewBox="0 0 600 600" xml:space="preserve">
<desc>Created with Fabric.js 3.6.3</desc>
<defs>
</defs>
<g transform="matrix(2 0 0 2 300 300)" id="logo-logo">
<g style="" paint-order="stroke">
		<g transform="matrix(0.12074650211098122 0 0 -0.12074650211098122 79.79196098082832 -2.101847722431245)">
<path style="stroke: none; stroke-width: 1; stroke-dasharray: none; stroke-linecap: butt; stroke-dashoffset: 0; stroke-linejoin: miter; stroke-miterlimit: 4; fill: rgb(11,15,27); fill-rule: nonzero; opacity: 1;" paint-order="stroke" transform=" translate(-1814.535, -1213.0395)" d="m 1922.38 819.719 h -215.04 l -0.65 786.641 l 190.66 -69.7 c 8.09 -2.88 16.4 -3.64 24.45 -2.13 l 0.58 -714.811" stroke-linecap="round"/>
</g>
		<g transform="matrix(0.12074650211098122 0 0 -0.12074650211098122 -3.5231275586259017 -48.28738593452002)">
<path style="stroke: none; stroke-width: 1; stroke-dasharray: none; stroke-linecap: butt; stroke-dashoffset: 0; stroke-linejoin: miter; stroke-miterlimit: 4; fill: rgb(11,15,27); fill-rule: nonzero; opacity: 1;" paint-order="stroke" transform=" translate(-1127.347, -1594.42)" d="m 1507.76 1681.48 l -670.127 -375.53 l -90.699 195.45 l 680.566 381.49 l 66.59 -182.17 c 0 -0.17 0.21 -0.17 0.21 -0.17 c 0.19 -0.4 0.19 -0.77 0.43 -1.17 c 0.55 -1.54 1.32 -2.89 2.05 -4.42 c 0.19 -0.57 0.63 -1.17 1.03 -1.74 c 0.53 -1.13 1.31 -2.31 2.24 -3.65 c 0.44 -0.41 0.63 -0.77 1.03 -1.35 c 0.73 -0.95 1.5 -1.74 2.29 -2.5 l -0.2 -0.2 c 0.39 -0.41 0.58 -0.57 0.94 -0.77 c 0.39 -0.4 0.58 -0.57 0.97 -0.97 c 0.96 -0.77 1.76 -1.55 2.53 -2.12 l 0.15 -0.18" stroke-linecap="round"/>
</g>
		<g transform="matrix(0.12074650211098122 0 0 -0.12074650211098122 80.5804564776879 -86.0269543317331)">
<path style="stroke: none; stroke-width: 1; stroke-dasharray: none; stroke-linecap: butt; stroke-dashoffset: 0; stroke-linejoin: miter; stroke-miterlimit: 4; fill: rgb(246,135,18); fill-rule: nonzero; opacity: 1;" paint-order="stroke" transform=" translate(-1817.701165014042, -1998.208099440044)" d="m 1901.5 1634.86 l -15.48 5.66 l -72.69 26.62 l -15.13 5.51 l -72.78 26.61 l -15.12 5.56 l -72.75 26.63 l -16.3 5.92 l 254.81 254.83 l 275.47 -107.31 z m 0.58 447.74 l -97.97 251.48 l 252.36 -97.14 l 97.1 -252.37 z m -345.23 -280.84 l -5.95 16.35 l -26.6 72.68 l -5.57 15.17 l -26.58 72.72 l -5.5 15.15 l -26.65 72.75 l -5.68 15.41 l 250.03 250.04 l 107.35 -275.43 z m 725.14 97.36 c 0.36 2.93 0.25 6.03 -0.19 9.04 c -0.44 4.1 -1.56 8.22 -3.17 12.13 l -142.77 370.99 c -0.1 0.38 -0.29 0.65 -0.44 1.01 c -0.29 0.82 -0.69 1.63 -1.08 2.39 c -0.34 0.67 -0.59 1.28 -0.92 1.87 c -0.34 0.72 -0.77 1.46 -1.28 2.18 c -0.33 0.63 -0.68 1.22 -1.06 1.75 c -0.5 0.72 -0.87 1.32 -1.42 1.98 c -0.44 0.59 -0.88 1.17 -1.27 1.72 c -0.44 0.52 -0.88 1.02 -1.31 1.53 l 0.03 0.05 c -0.03 0.08 -0.03 0.08 -0.07 0.12 c -0.3 0.23 -0.65 0.51 -0.9 0.79 c -0.3 0.29 -0.52 0.62 -0.77 0.87 c -0.04 0.01 -0.04 0.01 -0.11 0.09 l -0.08 -0.08 c -0.51 0.45 -0.99 0.89 -1.52 1.35 c -0.55 0.42 -1.14 0.87 -1.71 1.24 c -0.68 0.54 -1.26 0.97 -2.01 1.44 c -0.48 0.37 -1.06 0.74 -1.75 1.15 c -0.69 0.41 -1.42 0.83 -2.15 1.18 c -0.62 0.41 -1.21 0.64 -1.86 0.95 c -0.77 0.39 -1.61 0.75 -2.42 1.08 c -0.35 0.17 -0.6 0.31 -0.97 0.43 l -371.05 142.81 c -3.91 1.63 -7.95 2.68 -12.1 3.14 c -2.99 0.4 -6.11 0.5 -9.03 0.25 c -10.65 -0.75 -21 -5.07 -29.13 -12.96 l -322.49 -322.54 c -12.98 -12.96 -17.24 -32.07 -10.89 -49.24 l 137.99 -377.11 c 0.1 -0.07 0.1 -0.15 0.14 -0.2 c 0.15 -0.43 0.3 -0.79 0.5 -1.19 c 0.59 -1.47 1.32 -2.91 2.05 -4.35 c 0.3 -0.59 0.63 -1.19 1.03 -1.72 c 0.57 -1.24 1.41 -2.42 2.24 -3.64 c 0.34 -0.42 0.68 -0.89 1.07 -1.47 c 0.69 -0.86 1.46 -1.67 2.15 -2.51 l -0.1 -0.12 c 0.29 -0.33 0.64 -0.52 0.98 -0.84 c 0.35 -0.33 0.54 -0.67 0.83 -1 l 0.14 0.12 c 0.88 -0.7 1.65 -1.49 2.49 -2.18 c 0.54 -0.35 1.09 -0.72 1.53 -1.05 c 1.16 -0.85 2.37 -1.64 3.65 -2.29 c 0.5 -0.39 1.12 -0.69 1.71 -0.98 c 1.41 -0.75 2.88 -1.44 4.29 -2.07 c 0.44 -0.14 0.83 -0.33 1.21 -0.44 c 0.06 -0.03 0.1 -0.06 0.21 -0.15 l 377.09 -138.05 c 17.18 -6.31 36.35 -2.06 49.29 10.87 L 2269.12 1870 c 7.91 8.16 12.14 18.51 12.87 29.12" stroke-linecap="round"/>
</g>
		<g transform="matrix(0.12074650211098122 0 0 -0.12074650211098122 -3.5231275586259017 45.89488806660222)">
<path style="stroke: none; stroke-width: 1; stroke-dasharray: none; stroke-linecap: butt; stroke-dashoffset: 0; stroke-linejoin: miter; stroke-miterlimit: 4; fill: rgb(11,15,27); fill-rule: nonzero; opacity: 1;" paint-order="stroke" transform=" translate(-1127.9395, -809.115)" d="M 1506.25 701.281 L 1415.14 505.27 L 749.629 916.801 L 840.699 1112.96 L 1506.25 701.281" stroke-linecap="round"/>
</g>
		<g transform="matrix(0.12074650211098122 0 0 -0.12074650211098122 75.53024190770321 92.62438608147502)">
<path style="stroke: none; stroke-width: 1; stroke-dasharray: none; stroke-linecap: butt; stroke-dashoffset: 0; stroke-linejoin: miter; stroke-miterlimit: 4; fill: rgb(246,135,18); fill-rule: nonzero; opacity: 1;" paint-order="stroke" transform=" translate(-1815.17, -409.8595)" d="m 1621.07 93.6719 l -6.93 14.9571 l -32.54 70.223 l -6.85 14.617 l -32.64 70.281 l -6.77 14.621 l -32.61 70.231 l -7.31 15.707 h 360.35 L 1974.68 93.6719 Z m 317.02 316.2071 l 108.52 247.133 l 109.74 -247.133 l -109.74 -247.141 z m -442.67 45.562 l 7.31 15.739 l 32.61 70.218 l 6.77 14.672 l 32.64 70.219 l 6.74 14.633 l 32.65 70.226 l 6.93 14.922 h 353.61 L 1855.77 455.441 Z M 2077.01 11.4609 c 2.29 1.8672 4.39 4.168 6.3 6.5508 c 2.48 3.2383 4.62 6.9102 6.29 10.8281 L 2250.96 392.18 c 0.15 0.3 0.26 0.648 0.4 1.011 c 0.33 0.789 0.63 1.618 0.98 2.438 c 0.19 0.66 0.49 1.293 0.63 1.953 c 0.25 0.77 0.48 1.59 0.63 2.406 c 0.2 0.692 0.39 1.391 0.44 2.024 c 0.2 0.859 0.35 1.609 0.43 2.437 c 0.11 0.711 0.21 1.391 0.29 2.11 c 0.07 0.621 0.11 1.339 0.22 2.023 h 0.07 c 0 0.09 0 0.09 0 0.148 c 0 0.36 -0.04 0.75 -0.04 1.149 c 0 0.461 0.04 0.793 0.04 1.191 c 0 0.039 0 0.039 0 0.149 h -0.07 c -0.11 0.64 -0.15 1.32 -0.22 2.043 c -0.08 0.636 -0.18 1.386 -0.29 2.019 c -0.08 0.899 -0.23 1.578 -0.43 2.438 c -0.05 0.64 -0.24 1.34 -0.44 2.019 c -0.15 0.864 -0.38 1.672 -0.63 2.403 c -0.14 0.757 -0.44 1.339 -0.63 2.007 c -0.35 0.813 -0.65 1.633 -0.98 2.461 c -0.14 0.36 -0.25 0.641 -0.4 1 l -161.36 363.34 c -1.67 3.93 -3.81 7.563 -6.29 10.789 c -1.91 2.403 -4.01 4.653 -6.3 6.582 c -8.06 7.008 -18.39 11.219 -29.72 11.399 h -456.14 c -18.34 0 -34.85 -10.539 -42.54 -27.141 L 1379.57 428.32 c 0 -0.101 -0.04 -0.211 -0.04 -0.211 c -0.19 -0.461 -0.3 -0.789 -0.48 -1.187 c -0.65 -1.442 -1.13 -2.981 -1.67 -4.543 c -0.19 -0.641 -0.4 -1.238 -0.48 -1.93 c -0.44 -1.328 -0.69 -2.73 -0.94 -4.168 c -0.05 -0.543 -0.19 -1.082 -0.29 -1.769 c -0.15 -1.114 -0.15 -2.262 -0.24 -3.293 h -0.14 c 0 -0.438 0.05 -0.879 0.05 -1.34 c 0 -0.438 -0.05 -0.84 -0.05 -1.297 h 0.14 c 0.09 -1.102 0.09 -2.23 0.24 -3.312 c 0.1 -0.629 0.24 -1.258 0.29 -1.801 c 0.25 -1.457 0.5 -2.86 0.94 -4.199 c 0.08 -0.622 0.29 -1.27 0.48 -1.911 c 0.54 -1.539 1.02 -3.027 1.67 -4.531 c 0.18 -0.406 0.29 -0.75 0.48 -1.148 c 0 -0.032 0.04 -0.078 0.04 -0.231 L 1548.61 27.1289 C 1556.3 10.5391 1572.81 0 1591.15 0 h 456.14 c 11.33 0.238281 21.66 4.48828 29.72 11.4609" stroke-linecap="round"/>
</g>
		<g transform="matrix(0.12074650211098122 0 0 -0.12074650211098122 -83.55151704681424 -3.329690748233986)">
<path style="stroke: none; stroke-width: 1; stroke-dasharray: none; stroke-linecap: butt; stroke-dashoffset: 0; stroke-linejoin: miter; stroke-miterlimit: 4; fill: rgb(246,135,18); fill-rule: nonzero; opacity: 1;" paint-order="stroke" transform=" translate(-439.89850000000007, -1206.084)" d="m 634.008 1522.28 l 6.867 -14.98 l 32.586 -70.19 l 6.812 -14.61 l 32.633 -70.27 l 6.762 -14.63 l 32.641 -70.27 l 7.3 -15.71 H 399.246 L 280.398 1522.28 Z M 316.91 1206.09 L 208.453 958.949 L 98.6523 1206.09 L 208.453 1453.19 Z m 442.699 -45.51 l -7.3 -15.8 l -32.641 -70.17 l -6.762 -14.72 l -32.633 -70.23 l -6.757 -14.609 l -32.641 -70.262 l -6.867 -14.898 h -353.61 l 118.848 270.689 z m -581.613 443.91 c -2.23 -1.88 -4.367 -4.16 -6.215 -6.54 c -2.586 -3.25 -4.715 -6.93 -6.297 -10.86 L 4.07813 1223.8 c -0.14844 -0.34 -0.26954 -0.65 -0.38672 -1 c -0.38672 -0.83 -0.6875 -1.63 -0.95703 -2.44 c -0.21875 -0.75 -0.50391 -1.31 -0.64844 -1.97 c -0.24219 -0.78 -0.48047 -1.62 -0.64453 -2.42 c -0.20313 -0.71 -0.36719 -1.39 -0.449222 -2.02 c -0.199219 -0.88 -0.347657 -1.61 -0.421875 -2.44 c -0.140625 -0.71 -0.214844 -1.43 -0.351563 -2.1 c -0.019531 -0.69 -0.074219 -1.35 -0.09375 -2 H 0 c 0 -0.1 0 -0.1 0 -0.15 c 0 -0.36 0.0546875 -0.78 0.0546875 -1.17 c 0 -0.44 -0.0546875 -0.83 -0.0546875 -1.16 c 0 -0.06 0 -0.06 0 -0.15 h 0.125 c 0.019531 -0.72 0.074219 -1.37 0.09375 -2.06 c 0.136719 -0.66 0.210938 -1.38 0.351563 -2.04 c 0.074218 -0.88 0.222656 -1.63 0.390625 -2.46 c 0.113282 -0.68 0.277342 -1.34 0.480472 -2.05 c 0.16406 -0.79 0.40234 -1.62 0.64453 -2.38 c 0.125 -0.73 0.42969 -1.31 0.64844 -2 c 0.26953 -0.79 0.57031 -1.61 0.95703 -2.49 c 0.11718 -0.31 0.23828 -0.59 0.38672 -0.97 L 165.484 825 c 1.582 -3.918 3.711 -7.57 6.297 -10.789 c 1.848 -2.391 3.985 -4.641 6.215 -6.57 c 8.051 -7.012 18.426 -11.219 29.77 -11.403 h 456.101 c 18.324 0 34.84 10.532 42.539 27.133 L 875.48 1187.66 c 0 0.08 0 0.17 0 0.21 c 0.196 0.42 0.348 0.75 0.551 1.17 c 0.594 1.45 1.082 2.96 1.586 4.5 c 0.203 0.64 0.395 1.28 0.496 1.96 c 0.45 1.32 0.742 2.72 0.946 4.17 c 0.101 0.51 0.203 1.16 0.296 1.76 c 0.149 1.08 0.149 2.25 0.247 3.35 h 0.195 c 0 0.46 -0.094 0.82 -0.094 1.31 c 0 0.44 0.094 0.83 0.094 1.32 h -0.195 c -0.098 1.07 -0.098 2.19 -0.247 3.29 c -0.093 0.66 -0.195 1.25 -0.296 1.79 c -0.204 1.46 -0.496 2.83 -0.946 4.19 c -0.101 0.64 -0.246 1.27 -0.496 1.93 c -0.504 1.53 -0.992 3.03 -1.586 4.49 c -0.25 0.41 -0.355 0.76 -0.551 1.2 c 0 0.02 0 0.09 0 0.22 L 706.406 1588.8 c -7.699 16.58 -24.215 27.13 -42.539 27.13 H 207.766 c -11.344 -0.2 -21.719 -4.47 -29.77 -11.44" stroke-linecap="round"/>
</g>
</g>
</g>
</svg>